<?xml version="1.0" encoding="utf-8"?>
<!-- Generator: Adobe Illustrator 27.2.0, SVG Export Plug-In . SVG Version: 6.00 Build 0)  -->
<svg version="1.1" id="Layer_1" xmlns="http://www.w3.org/2000/svg" xmlns:xlink="http://www.w3.org/1999/xlink" x="0px" y="0px"
	 viewBox="0 0 657.4 124.5" style="enable-background:new 0 0 657.4 124.5;" xml:space="preserve">
<style type="text/css">
	.st0{display:none;}
	.st1{fill:#F5841F;}
	.st2{fill:#161616;}
	.st3{fill:#E27625;}
	.st4{fill:#D7C1B3;}
	.st5{fill:#2F343B;}
	.st6{fill:#CC6228;}
	.st7{fill:#C0AD9E;}
	.st8{fill:#763E1A;}
</style>
<g id="bg_x28_do_not_export_x29_" class="st0">
</g>
<g>
	<g id="MM_Head_background__x28_Do_not_edit_x29_">
		<path class="st1" d="M132.6,4.3L92,19.3l0,0l0,0H58.2l0,0l-40.6-15l0.3,0.2l-0.3-0.2L11.3,23l4.2,20.1l-2.7,2l4,3l-3.1,2.3l4,3.6
			l-2.5,1.8l5.8,6.8l-8.7,26.8l0,0l0,0l8.1,27.4l28.4-7.7l0,0l0,0l0,0l0,0l0,0l0,0l0,0l0,0l0,0l0,0l5.5,4.5l11.2,7.6h19.2l11.3-7.6
			l5.5-4.5l0,0l0,0l0,0l0,0l0,0l0,0l0,0l0,0l0,0l0,0l28.4,7.7l8.1-27.4l0,0l0,0l-8.8-26.8 M129.1,62.6l5.8-6.7l-2.5-1.8l4-3.6
			l-3.1-2.3l4-3l-2.6-2l4.2-20.1l-6.3-18.7 M101.4,108.9L101.4,108.9 M48.7,108.9L48.7,108.9"/>
	</g>
	<g id="Logos">
		<g>
			<g>
				<path class="st2" d="M578,63.1c-3.3-2.2-7-3.8-10.5-5.7c-2.3-1.3-4.7-2.4-6.6-4c-3.3-2.7-2.6-8.1,0.8-10.5
					c5-3.3,13.3-1.5,14.2,5.3c0,0.1,0.1,0.2,0.3,0.2h7.6c0.2,0,0.3-0.1,0.3-0.3c-0.4-4.7-2.2-8.6-5.5-11.1
					c-3.2-2.4-6.8-3.7-10.7-3.7c-20,0-21.8,21.1-11,27.8c1.2,0.8,11.8,6.1,15.5,8.4s4.9,6.5,3.3,9.9c-1.5,3-5.3,5.1-9.1,4.9
					c-4.2-0.2-7.4-2.5-8.5-6c-0.2-0.6-0.3-1.9-0.3-2.4c0-0.1-0.1-0.3-0.3-0.3h-8.2c-0.1,0-0.3,0.1-0.3,0.3c0,5.9,1.5,9.2,5.5,12.2
					c3.8,2.8,7.9,4,12.2,4c11.2,0,17-6.3,18.1-12.9C585.6,72.7,583.7,66.9,578,63.1z"/>
				<path class="st2" d="M227.2,34.4h-12.4c-0.1,0-0.2,0.1-0.3,0.2l-6.7,22.2c-0.1,0.3-0.5,0.3-0.6,0l-6.7-22.2
					c0-0.1-0.1-0.2-0.3-0.2h-12.5c-0.1,0-0.3,0.1-0.3,0.3v56.6c0,0.1,0.1,0.3,0.3,0.3h8.2c0.1,0,0.3-0.1,0.3-0.3v-43
					c0-0.3,0.5-0.4,0.6-0.1l6.8,22.3l0.5,1.6c0,0.1,0.1,0.2,0.3,0.2h6.3c0.1,0,0.2-0.1,0.3-0.2l0.5-1.6l6.8-22.3
					c0.1-0.3,0.6-0.2,0.6,0.1v43c0,0.1,0.1,0.3,0.3,0.3h8.2c0.1,0,0.3-0.1,0.3-0.3V34.7C227.5,34.5,227.4,34.4,227.2,34.4z"/>
				<path class="st2" d="M452.6,34.4c-0.1,0-0.2,0.1-0.3,0.2l-6.7,22.2c-0.1,0.3-0.5,0.3-0.6,0l-6.7-22.2c0-0.1-0.1-0.2-0.3-0.2
					h-12.5c-0.1,0-0.3,0.1-0.3,0.3v56.6c0,0.1,0.1,0.3,0.3,0.3h8.2c0.1,0,0.3-0.1,0.3-0.3v-43c0-0.3,0.5-0.4,0.6-0.1l6.8,22.3
					l0.5,1.6c0,0.1,0.1,0.2,0.3,0.2h6.3c0.1,0,0.2-0.1,0.3-0.2l0.5-1.6l6.8-22.3c0.1-0.3,0.6-0.2,0.6,0.1v43c0,0.1,0.1,0.3,0.3,0.3
					h8.2c0.1,0,0.3-0.1,0.3-0.3V34.7c0-0.1-0.1-0.3-0.3-0.3C465.2,34.4,452.6,34.4,452.6,34.4z"/>
				<path class="st2" d="M347,34.4h-38.7c-0.1,0-0.3,0.1-0.3,0.3v7.1c0,0.1,0.1,0.3,0.3,0.3h15v49.2c0,0.1,0.1,0.3,0.3,0.3h8.2
					c0.1,0,0.3-0.1,0.3-0.3V42.1h15c0.1,0,0.3-0.1,0.3-0.3v-7.1C347.3,34.5,347.2,34.4,347,34.4z"/>
				<path class="st2" d="M375.7,66.5l6-22.1c0.1-0.3,0.5-0.3,0.6,0l6,22.1c0,0.2-0.1,0.4-0.3,0.4h-12
					C375.8,66.9,375.6,66.7,375.7,66.5z M395.3,91.5h7.5c0.2,0,0.3-0.2,0.3-0.4l-15.4-56.8c0-0.1-0.1-0.2-0.3-0.2h-10.7
					c-0.1,0-0.2,0.1-0.3,0.2L361,91.1c0,0.2,0.1,0.4,0.3,0.4h7.5c0.1,0,0.2-0.1,0.3-0.2l4.5-16.5c0-0.1,0.1-0.2,0.3-0.2h16.5
					c0.1,0,0.2,0.1,0.3,0.2l4.5,16.5C395,91.4,395.2,91.5,395.3,91.5z"/>
				<path class="st2" d="M502.8,66.5l6-22.1c0.1-0.3,0.5-0.3,0.6,0l6,22.1c0,0.2-0.1,0.4-0.3,0.4h-12
					C502.9,66.9,502.7,66.7,502.8,66.5z M522.4,91.5h7.5c0.2,0,0.3-0.2,0.3-0.4l-15.4-56.8c0-0.1-0.1-0.2-0.3-0.2h-10.7
					c-0.1,0-0.2,0.1-0.3,0.2L488,91.1c0,0.2,0.1,0.4,0.3,0.4h7.5c0.1,0,0.2-0.1,0.3-0.2l4.5-16.5c0-0.1,0.1-0.2,0.3-0.2h16.5
					c0.1,0,0.2,0.1,0.3,0.2l4.5,16.5C522.1,91.4,522.2,91.5,522.4,91.5z"/>
				<path class="st2" d="M260.8,83.2V65.6c0-0.1,0.1-0.3,0.3-0.3h21.8c0.1,0,0.3-0.1,0.3-0.3v-7.1c0-0.1-0.1-0.3-0.3-0.3h-21.8
					c-0.1,0-0.3-0.1-0.3-0.3v-15c0-0.1,0.1-0.3,0.3-0.3h24.8c0.1,0,0.3-0.1,0.3-0.3v-7.1c0-0.1-0.1-0.3-0.3-0.3h-33.6
					c-0.1,0-0.3,0.1-0.3,0.3v56.5c0,0.1,0.1,0.3,0.3,0.3h34.6c0.1,0,0.3-0.1,0.3-0.3v-7.5c0-0.1-0.1-0.3-0.3-0.3H261
					C260.9,83.5,260.8,83.4,260.8,83.2z"/>
				<path class="st2" d="M652.8,91.1l-28.3-29.3c-0.1-0.1-0.1-0.3,0-0.4L650,34.9c0.2-0.2,0-0.5-0.2-0.5h-10.4c-0.1,0-0.1,0-0.2,0.1
					L617.6,57c-0.2,0.2-0.5,0-0.5-0.2V34.7c0-0.1-0.1-0.3-0.3-0.3h-8.2c-0.1,0-0.3,0.1-0.3,0.3v56.6c0,0.1,0.1,0.3,0.3,0.3h8.2
					c0.1,0,0.3-0.1,0.3-0.3V66.4c0-0.2,0.3-0.4,0.5-0.2l24.5,25.3c0,0,0.1,0.1,0.2,0.1h10.4C652.8,91.6,653,91.2,652.8,91.1z"/>
			</g>
			<g>
				<polygon class="st3" points="132.6,4.3 82.7,40.8 92,19.2 				"/>
				<polygon class="st3" points="17.5,4.3 67,41.1 58.1,19.2 				"/>
				<polygon class="st3" points="114.6,88.9 101.4,108.9 129.8,116.7 137.9,89.3 				"/>
				<polygon class="st3" points="12.2,89.3 20.3,116.7 48.7,108.9 35.5,88.9 				"/>
				<polygon class="st3" points="47.2,55 39.3,66.8 67.4,68.1 66.5,38.1 				"/>
				<polygon class="st3" points="102.9,55 83.3,37.8 82.7,68.1 110.8,66.8 				"/>
				<polygon class="st3" points="48.7,108.9 65.7,100.8 51.1,89.5 				"/>
				<polygon class="st3" points="84.4,100.8 101.4,108.9 99,89.5 				"/>
				<polygon class="st4" points="101.4,108.9 84.4,100.8 85.8,111.7 85.6,116.3 				"/>
				<polygon class="st4" points="48.7,108.9 64.5,116.3 64.4,111.7 65.7,100.8 				"/>
				<polygon class="st5" points="64.8,82.3 50.7,78.2 60.6,73.7 				"/>
				<polygon class="st5" points="85.3,82.3 89.5,73.7 99.5,78.2 				"/>
				<polygon class="st6" points="48.7,108.9 51.2,88.9 35.5,89.3 				"/>
				<polygon class="st6" points="98.9,88.9 101.4,108.9 114.6,89.3 				"/>
				<polygon class="st6" points="110.8,66.8 82.7,68.1 85.3,82.3 89.5,73.7 99.5,78.2 				"/>
				<polygon class="st6" points="50.7,78.2 60.6,73.7 64.8,82.3 67.4,68.1 39.3,66.8 				"/>
				<polygon class="st3" points="39.3,66.8 51.1,89.5 50.7,78.2 				"/>
				<polygon class="st3" points="99.5,78.2 99,89.5 110.8,66.8 				"/>
				<polygon class="st3" points="67.4,68.1 64.8,82.3 68.1,99.2 68.8,77 				"/>
				<polygon class="st3" points="82.7,68.1 81.3,76.9 82,99.2 85.3,82.3 				"/>
				<polygon class="st1" points="85.3,82.3 82,99.2 84.4,100.8 99,89.5 99.5,78.2 				"/>
				<polygon class="st1" points="50.7,78.2 51.1,89.5 65.7,100.8 68.1,99.2 64.8,82.3 				"/>
				<polygon class="st7" points="85.6,116.3 85.8,111.7 84.5,110.7 65.6,110.7 64.4,111.7 64.5,116.3 48.7,108.9 54.2,113.4 
					65.4,121.1 84.6,121.1 95.9,113.4 101.4,108.9 				"/>
				<polygon class="st5" points="84.4,100.8 82,99.2 68.1,99.2 65.7,100.8 64.4,111.7 65.6,110.7 84.5,110.7 85.8,111.7 				"/>
				<polygon class="st8" points="134.7,43.1 138.9,23 132.6,4.3 84.4,39.5 102.9,55 129.1,62.6 134.9,55.9 132.4,54.1 136.4,50.5 
					133.3,48.2 137.3,45.1 				"/>
				<polygon class="st8" points="11.2,23 15.4,43.1 12.7,45.1 16.8,48.2 13.7,50.5 17.7,54.1 15.2,55.9 21,62.6 47.2,55 65.7,39.5 
					17.5,4.3 				"/>
				<polygon class="st1" points="129.1,62.6 102.9,55 110.8,66.8 99,89.5 114.6,89.3 137.9,89.3 				"/>
				<polygon class="st1" points="47.2,55 21,62.6 12.2,89.3 35.5,89.3 51.1,89.5 39.3,66.8 				"/>
				<polygon class="st1" points="82.7,68.1 84.4,39.5 92,19.2 58.1,19.2 65.7,39.5 67.4,68.1 68,77 68.1,99.2 82,99.2 82.1,77 				
					"/>
			</g>
		</g>
	</g>
</g>
</svg>
